# xmcd
#
# Track frame offsets:
#	150
#	16130
#	31970
#	49745
#	69552
#	84220
#	98732
#	112895
#	129480
#	143687
#	159717
#	175410
#	195615
#	216690
#	231407
#	245872
#	265565
#
# Disc length: 3764 seconds
#
# Revision: 1
# Processed by: cddbd v1.5.1PL0 Copyright (c) Steve Scherf et al.
# Submitted via: EasyCDDAExtractor 7.0.6.1
#
DISCID=ec0eb211
DTITLE=Peter Viskinde - 30 Best Of and 4 Bonus [CD1]
DYEAR=2004
DGENRE=
TTITLE0=The Heartache Is Gone
TTITLE1=It's All Right
TTITLE2=Savner En Som Dig
TTITLE3=Livet Er Vidunderligt
TTITLE4=Corrina, Corrina
TTITLE5=Blue Angel
TTITLE6=The Days Are Coming
TTITLE7=Let Me Be Your Man
TTITLE8=Name And Number
TTITLE9=Roses In The Garden
TTITLE10=Some Dreams
TTITLE11=Speed Of The Sound Of Loneliness
TTITLE12=Love Won't Come To Town
TTITLE13=Turn To You
TTITLE14=Rain, Rain, Rain
TTITLE15=Heartache
TTITLE16=Hallelujah
EXTD=
EXTT0=
EXTT1=
EXTT2=
EXTT3=
EXTT4=
EXTT5=
EXTT6=
EXTT7=
EXTT8=
EXTT9=
EXTT10=
EXTT11=
EXTT12=
EXTT13=
EXTT14=
EXTT15=
EXTT16=
PLAYORDER=
